<svg version="1.1" id="Layer_1" xmlns="http://www.w3.org/2000/svg" x="0" y="0" viewBox="0 0 220.1 47" xml:space="preserve"><style>.st0{fill:#fff}</style><path class="st0" d="M8.3 28.8v1.3l86 .1-1.1-1.4H8.3zm106.9 1.5h96.6v-1.5l-95.7-.1-.9 1.6zM8.3 4h7.1v4.1l3-4.2h8.4c.9 0 1.8.3 2.7 1 .8.7 1.1 1.5 1.2 2.4v18.6h-7.5V11.4s.1-1-.6-1.6c-.7-.5-1.2-.5-1.7-.5h-5.4v16.5H8.3V4zm47.2 22.2h-7.2l.1-4.2-3 4.2H37c-.9 0-1.8-.3-2.7-1-.8-.7-1.1-1.5-1.2-2.4V4.2h7.5v14.5s-.1 1 .6 1.6c.7.5 1.2.5 1.7.5h5.4V4.3h7.2v21.9zm71.9-21.9h7.2v21.8h-7.2V4.3zm20.4 4.5l3.8-4.6s6.3-.1 6.8-.1c.9 0 1.8.3 2.7 1 .8.7 1.1 1.5 1.2 2.4v18.6h-7.5V11.7s.1-1-.6-1.6c-.7-.5-1.2-.5-1.7-.5h-4.8l.1-.8zM57.6 4.2h23.1l-3.6 5.7h-5.5v16.3h-7.5V9.9h-6.5V4.2zM188 4.1h7.8l3 4.6 3.2-4.6h7.8l-7 10.5 7.8 11.4h-7.8l-3.9-5.6-3.7 5.6h-8l7.7-11.4L188 4.1zM105.7 10l3.3-5.7h11c.8 0 2.9.3 3.8 1.4s1.3 2.1 1.3 3.1v17.3H118v-3.3l-2.7 3.3h-5.6c-1.4-.1-5.2-.8-5.4-5.3-.1-4.6.5-5.6 2.2-6.9.9-.7 2.3-1 3.7-1h6.6s1.4-.3 1.2-1.6c0-.3 0-1.5-1-1.4-.9.1-11.3.1-11.3.1m6.6 7.3c-.6.1-1.1.6-1.1 1.4 0 .7.1 1.5.9 1.8.7.2 5.5.1 5.5.1v-3.3h-5.3"/><path class="st0" d="M81.5 26.2V4.4s13.5-.1 16.2 0c3.7.1 5.6 4.6 5.7 8.3.1 3.2-1 5.1-2.4 6.5-.9.9-2.4 2-2.4 2l6.6 9.9 1.5-2.3h6.9l-4.8 8.5 5.9 9.4h-7.5l-1.9-2.9-1.8 2.9h-8.1l5.8-9-12.4-19.6v8.1h-7.3zm7.2-16.5v6.4h5.7c.9 0 2.1 0 2.2-3.2 0-1.2-.2-3.2-2.1-3.2h-5.8m45.4-.8l3.7-4.4s6.3-.1 6.8-.1c.9 0 1.8.3 2.7 1 .8.7 1.1 1.5 1.2 2.4v18.6H141V11.9s.1-1-.6-1.6c-.7-.5-1.2-.5-1.7-.5h-4.8l.2-.9zm31.7 1l3.3-5.7h11c.8 0 2.9.3 3.8 1.4.9 1.1 1.3 2.1 1.3 3.1V26h-7.1v-3.3l-2.7 3.3h-5.6c-1.4-.1-5.2-.8-5.4-5.3-.1-4.6.5-5.6 2.2-6.9.9-.7 2.3-1 3.7-1h6.6s1.4-.3 1.2-1.6c0-.3 0-1.5-1-1.4-.9.2-11.3.1-11.3.1m6.6 7.4c-.6.1-1.1.6-1.1 1.4 0 .7.1 1.5.9 1.8.7.2 5.5.1 5.5.1v-3.3c.1-.1-4.7-.1-5.3 0M8.3 0h203.5v1.5H8.3V0zm108.6 46.8V36.7h1.7v8.4h3v1.7h-4.7zm7.1-10.1h2.1l2.3 10.1h-1.8l-.4-2.1H124l-.4 2.1h-1.8l2.2-10.1zm.3 6.3h1.7l-.8-4.6-.9 4.6zm4.7-6.3h2.9c1.4 0 2.4.6 2.4 2.6 0 1.1-.4 1.9-1.3 2.2.9.2 1.5 1 1.5 2.4 0 1.6-.7 3-2.7 3H129V36.7zm1.7 4.1h.5c.9 0 1.4-.4 1.4-1.3 0-1-.4-1.3-1.2-1.3h-.6l-.1 2.6zm0 4.5h.7c.8 0 1.4-.4 1.4-1.5 0-1.2-.6-1.5-1.3-1.5h-.7l-.1 3zm7.6-8.8c2.6 0 2.9 2.2 2.9 5.3s-.3 5.3-2.9 5.3-2.9-2.2-2.9-5.3c0-3.2.4-5.3 2.9-5.3m0 9c1 0 1.2-1 1.2-3.8 0-2.7-.2-3.8-1.2-3.8s-1.2 1-1.2 3.8c.1 2.7.2 3.8 1.2 3.8m3.9-8.8h3.2c1.4 0 2.3.9 2.3 2.6 0 1.3-.5 2.3-1.4 2.5 1.2.2 1.3 1 1.4 3.1 0 1.1.1 1.6.4 1.8v.1h-1.9c-.2-.3-.2-.7-.2-1.1v-1.9c0-.8-.3-1.3-1-1.3h-.9v4.3h-1.7V36.7h-.2zm1.7 4.4h.7c.8 0 1.3-.4 1.3-1.5 0-.9-.4-1.4-1.2-1.4h-.8v2.9zM150.5 36.7h2.1l2.2 10.1H153l-.4-2.1h-2.3l-.4 2.1h-1.8l2.4-10.1zm.2 6.3h1.7l-.8-4.6-.9 4.6zm9.1-6.3v1.6h-1.9v8.5h-1.7v-8.5h-1.8v-1.6h5.4zm3.4-.2c2.6 0 2.9 2.2 2.9 5.3s-.3 5.3-2.9 5.3-2.9-2.2-2.9-5.3c0-3.2.4-5.3 2.9-5.3m0 9c1 0 1.2-1 1.2-3.8 0-2.7-.2-3.8-1.2-3.8s-1.2 1-1.2 3.8c.1 2.7.2 3.8 1.2 3.8m3.9-8.8h3.2c1.4 0 2.3.9 2.3 2.6 0 1.3-.5 2.3-1.4 2.5 1.2.2 1.3 1 1.4 3.1 0 1.1.1 1.6.4 1.8v.1h-2c-.2-.3-.2-.7-.2-1.1v-1.9c0-.8-.3-1.3-1-1.3h-.9v4.3h-1.7V36.7h-.1zm1.8 4.4h.7c.8 0 1.3-.4 1.3-1.5 0-.9-.4-1.4-1.2-1.4h-.8v2.9zm4.9-4.4h1.7v10.1h-1.7V36.7zm7.8 0v1.6h-3.1v2.4h2.9v1.7h-2.9v2.7h3.2v1.7h-4.9V36.7h4.8zm2.3 6.9v.3c0 .9.2 1.6 1.1 1.6.5 0 1-.4 1-1.2 0-.9-.4-1.3-1.5-1.7-1.5-.6-2.2-1.4-2.2-3.1 0-2 1-3 2.6-3 1.5 0 2.6.8 2.6 2.7v.3H186c0-1-.3-1.5-.9-1.5-.8 0-1 .6-1 1.2s.2 1 .9 1.4l1.3.7c1.3.7 1.6 1.4 1.6 2.7 0 2.1-1.1 3.1-3 3.1s-2.7-1.1-2.7-3v-.4l1.7-.1zM216.7.1c1.9 0 3.4 1.5 3.4 3.4s-1.5 3.4-3.4 3.4-3.4-1.5-3.4-3.4 1.5-3.4 3.4-3.4zm0 .7c-1.4 0-2.6 1.2-2.6 2.7s1.2 2.7 2.6 2.7c1.4 0 2.6-1.2 2.6-2.7S218.1.8 216.7.8zm-.6 4.7h-.8V1.7c.3 0 .6-.1 1.2-.1.7 0 1 .1 1.3.3.2.2.3.4.3.8 0 .5-.3.8-.7.9.3.1.5.4.6.9.1.6.2.8.2.9h-.8c-.1-.1-.2-.5-.2-1-.1-.4-.3-.6-.7-.6h-.4v1.7zm0-2.2h.4c.5 0 .8-.2.8-.5s-.2-.6-.8-.6h-.4v1.1z"/></svg>